<svg width="280" height="382" viewBox="0 0 280 382" fill="none" xmlns="http://www.w3.org/2000/svg">
  <style>
    .icon-path {
      fill: #4F46E5;
    }
  </style>
  <path class="icon-path" d="M250.727 381.818C234.848 381.818 221.697 377.636 211.273 369.273C200.848 360.788 193.818 348.182 190.182 331.455L161.818 177.818L147.273 116.727L141.091 89.8182C138.545 78.6667 135.333 70.3636 131.455 64.9091C127.576 59.4545 122.121 56.3636 115.091 55.6364C108.061 54.9091 98.6667 56.1212 86.9091 59.2727L80.5455 6.54548C85.7576 4.72728 91.6364 3.21213 98.1818 2.00001C104.727 0.666674 111.818 7.62939e-06 119.455 7.62939e-06C141.636 7.62939e-06 159.576 5.63637 173.273 16.9091C187.091 28.1818 196.303 44.7273 200.909 66.5455L250.545 301.818C252.485 310.424 254.606 317.03 256.909 321.636C259.212 326.121 263.758 328.364 270.545 328.364C271.879 328.364 273.394 328.303 275.091 328.182C276.909 327.939 278.364 327.758 279.455 327.636L278.545 378.364C274.909 379.333 270.485 380.121 265.273 380.727C260.061 381.455 255.212 381.818 250.727 381.818ZM2.86102e-06 377.455L159.091 83.2727L178.727 195.273H161.818L68.7273 377.455H2.86102e-06Z"/>
</svg>
